G04 MADE WITH FRITZING*
G04 WWW.FRITZING.ORG*
G04 DOUBLE SIDED*
G04 HOLES PLATED*
G04 CONTOUR ON CENTER OF CONTOUR VECTOR*
%ASAXBY*%
%FSLAX23Y23*%
%MOIN*%
%OFA0B0*%
%SFA1.0B1.0*%
%ADD10C,0.078000*%
%ADD11C,0.060000*%
%ADD12C,0.075000*%
%ADD13C,0.071828*%
%ADD14C,0.080000*%
%ADD15C,0.082000*%
%ADD16C,0.062992*%
%ADD17C,0.039370*%
%ADD18R,0.079986X0.080000*%
%ADD19R,0.080000X0.079986*%
%ADD20R,0.082000X0.082000*%
%ADD21R,0.062992X0.062992*%
%ADD22C,0.024000*%
%LNCOPPER1*%
G90*
G70*
G54D10*
X2215Y725D03*
X2115Y725D03*
X2015Y725D03*
G54D11*
X2315Y925D03*
X2215Y925D03*
X2115Y925D03*
X2015Y925D03*
G54D12*
X1615Y725D03*
X1615Y1125D03*
G54D13*
X482Y1316D03*
X583Y1316D03*
X682Y1316D03*
X783Y1316D03*
X882Y1316D03*
X982Y1316D03*
X1083Y1316D03*
X1182Y1316D03*
X1282Y1316D03*
X1382Y1316D03*
X1482Y1316D03*
X1582Y1316D03*
X1682Y1316D03*
X1782Y1316D03*
X1881Y1316D03*
X1982Y1316D03*
X2081Y1316D03*
X2181Y1316D03*
X2282Y1316D03*
X2282Y2302D03*
X2181Y2302D03*
X2081Y2302D03*
X1982Y2302D03*
X1881Y2302D03*
X1782Y2302D03*
X1682Y2302D03*
X1582Y2302D03*
X1482Y2302D03*
X1382Y2302D03*
X1282Y2302D03*
X1182Y2302D03*
X1083Y2302D03*
X982Y2302D03*
X882Y2302D03*
X783Y2302D03*
X682Y2302D03*
X583Y2302D03*
X482Y2302D03*
G54D14*
X3515Y1225D03*
X3515Y1025D03*
X3515Y725D03*
X3515Y525D03*
X2115Y3525D03*
X2315Y3525D03*
X3315Y3525D03*
X3515Y3525D03*
X2715Y3525D03*
X2915Y3525D03*
X1515Y3525D03*
X1715Y3525D03*
X915Y3525D03*
X1115Y3525D03*
X415Y3525D03*
X615Y3525D03*
X3515Y2225D03*
X3515Y2025D03*
X3515Y1725D03*
X3515Y1525D03*
X2215Y425D03*
X2015Y425D03*
X715Y425D03*
X515Y425D03*
X1215Y425D03*
X1015Y425D03*
X1715Y425D03*
X1515Y425D03*
X3215Y425D03*
X3015Y425D03*
X2715Y425D03*
X2515Y425D03*
G54D15*
X415Y3225D03*
X515Y3225D03*
X615Y3225D03*
X3315Y3225D03*
X3415Y3225D03*
X3515Y3225D03*
X2815Y3225D03*
X2915Y3225D03*
X3015Y3225D03*
X2215Y3225D03*
X2315Y3225D03*
X2415Y3225D03*
X1615Y3225D03*
X1715Y3225D03*
X1815Y3225D03*
X1015Y3225D03*
X1115Y3225D03*
X1215Y3225D03*
G54D12*
X315Y2725D03*
X715Y2725D03*
X315Y2525D03*
X715Y2525D03*
X3315Y2525D03*
X3715Y2525D03*
X2715Y2525D03*
X3115Y2525D03*
X2115Y2525D03*
X2515Y2525D03*
X1515Y2525D03*
X1915Y2525D03*
X915Y2525D03*
X1315Y2525D03*
X3315Y2725D03*
X3715Y2725D03*
X2715Y2725D03*
X3115Y2725D03*
X2115Y2725D03*
X2515Y2725D03*
X1515Y2725D03*
X1915Y2725D03*
X915Y2725D03*
X1315Y2725D03*
G54D16*
X515Y2927D03*
X515Y3025D03*
X3415Y2927D03*
X3415Y3025D03*
X2915Y2927D03*
X2915Y3025D03*
X2315Y2927D03*
X2315Y3025D03*
X1715Y2927D03*
X1715Y3025D03*
X1115Y2927D03*
X1115Y3025D03*
G54D17*
X2580Y2437D03*
X2316Y2701D03*
G54D18*
X3515Y1225D03*
X3515Y725D03*
G54D19*
X2115Y3525D03*
X3315Y3525D03*
X2715Y3525D03*
X1515Y3525D03*
X915Y3525D03*
X415Y3525D03*
G54D18*
X3515Y2225D03*
X3515Y1725D03*
G54D19*
X2215Y425D03*
X715Y425D03*
X1215Y425D03*
X1715Y425D03*
X3215Y425D03*
X2715Y425D03*
G54D20*
X415Y3225D03*
X3315Y3225D03*
X2815Y3225D03*
X2215Y3225D03*
X1615Y3225D03*
X1015Y3225D03*
G54D21*
X515Y2927D03*
X3415Y2927D03*
X2915Y2927D03*
X2315Y2927D03*
X1715Y2927D03*
X1115Y2927D03*
G54D22*
X1080Y1286D02*
X1018Y456D01*
D02*
X3325Y3496D02*
X3405Y3256D01*
D02*
X935Y2746D02*
X1096Y2908D01*
D02*
X1019Y3193D02*
X1044Y2965D01*
X1044Y2965D02*
X1092Y2940D01*
D02*
X3490Y1243D02*
X1980Y2269D01*
X1980Y2269D02*
X1980Y2271D01*
D02*
X1535Y2746D02*
X1696Y2908D01*
D02*
X1619Y3193D02*
X1644Y2965D01*
X1644Y2965D02*
X1692Y2940D01*
D02*
X335Y2746D02*
X496Y2908D01*
D02*
X419Y3193D02*
X444Y2965D01*
X444Y2965D02*
X492Y2940D01*
D02*
X1903Y2281D02*
X3493Y747D01*
D02*
X1397Y2328D02*
X1404Y2341D01*
X1404Y2341D02*
X2090Y2712D01*
D02*
X2735Y2746D02*
X2896Y2908D01*
D02*
X2819Y3193D02*
X2844Y2965D01*
X2844Y2965D02*
X2892Y2940D01*
D02*
X1705Y2322D02*
X1836Y2437D01*
X1836Y2437D02*
X1980Y2437D01*
X1980Y2437D02*
X2028Y2593D01*
X2028Y2593D02*
X2676Y2677D01*
X2676Y2677D02*
X2697Y2703D01*
D02*
X2194Y747D02*
X2039Y901D01*
D02*
X2215Y456D02*
X2215Y695D01*
D02*
X1641Y738D02*
X1985Y910D01*
D02*
X1543Y440D02*
X1596Y469D01*
X1596Y469D02*
X1613Y697D01*
D02*
X2986Y415D02*
X2796Y349D01*
X2796Y349D02*
X2460Y349D01*
X2460Y349D02*
X2245Y416D01*
D02*
X490Y1287D02*
X707Y455D01*
D02*
X3403Y2903D02*
X3328Y2751D01*
D02*
X3319Y3193D02*
X3348Y2965D01*
X3348Y2965D02*
X3392Y2940D01*
D02*
X2586Y2455D02*
X2628Y2593D01*
X2628Y2593D02*
X3276Y2677D01*
X3276Y2677D02*
X3297Y2703D01*
D02*
X1088Y3540D02*
X996Y3589D01*
X996Y3589D02*
X852Y3589D01*
X852Y3589D02*
X645Y3533D01*
D02*
X1688Y3540D02*
X1596Y3589D01*
X1596Y3589D02*
X1452Y3589D01*
X1452Y3589D02*
X1146Y3531D01*
D02*
X2288Y3540D02*
X2196Y3589D01*
X2196Y3589D02*
X2052Y3589D01*
X2052Y3589D02*
X1746Y3531D01*
D02*
X2888Y3540D02*
X2796Y3589D01*
X2796Y3589D02*
X2652Y3589D01*
X2652Y3589D02*
X2346Y3531D01*
D02*
X3488Y3540D02*
X3396Y3589D01*
X3396Y3589D02*
X3252Y3589D01*
X3252Y3589D02*
X2946Y3531D01*
D02*
X715Y2697D02*
X715Y2554D01*
D02*
X504Y2323D02*
X695Y2506D01*
D02*
X1295Y2506D02*
X1105Y2323D01*
D02*
X1315Y2697D02*
X1315Y2554D01*
D02*
X2300Y2712D02*
X2172Y2797D01*
X2172Y2797D02*
X2076Y2797D01*
X2076Y2797D02*
X1941Y2737D01*
D02*
X3705Y2752D02*
X3527Y3196D01*
D02*
X3715Y2554D02*
X3715Y2697D01*
D02*
X3515Y1756D02*
X3515Y1994D01*
D02*
X1992Y706D02*
X1908Y637D01*
X1908Y637D02*
X1644Y517D01*
X1644Y517D02*
X1644Y373D01*
X1644Y373D02*
X1452Y349D01*
X1452Y349D02*
X1452Y493D01*
X1452Y493D02*
X1548Y1021D01*
X1548Y1021D02*
X1692Y1021D01*
X1692Y1021D02*
X1773Y1287D01*
D02*
X2001Y453D02*
X1908Y637D01*
D02*
X2307Y959D02*
X2292Y1021D01*
X2292Y1021D02*
X1692Y1021D01*
D02*
X2696Y450D02*
X2337Y899D01*
D02*
X3530Y553D02*
X3588Y661D01*
X3588Y661D02*
X3588Y973D01*
X3588Y973D02*
X3541Y1007D01*
D02*
X1245Y416D02*
X1452Y349D01*
D02*
X542Y409D02*
X636Y349D01*
X636Y349D02*
X1068Y349D01*
X1068Y349D02*
X1188Y411D01*
G04 End of Copper1*
M02*