G04 MADE WITH FRITZING*
G04 WWW.FRITZING.ORG*
G04 DOUBLE SIDED*
G04 HOLES PLATED*
G04 CONTOUR ON CENTER OF CONTOUR VECTOR*
%ASAXBY*%
%FSLAX23Y23*%
%MOIN*%
%OFA0B0*%
%SFA1.0B1.0*%
%ADD10C,0.088000*%
%ADD11C,0.070000*%
%ADD12C,0.085000*%
%ADD13C,0.135984*%
%ADD14C,0.081824*%
%ADD15C,0.090000*%
%ADD16C,0.092000*%
%ADD17C,0.072992*%
%ADD18C,0.049370*%
%ADD19R,0.089986X0.090000*%
%ADD20R,0.090000X0.089986*%
%ADD21R,0.092000X0.092000*%
%ADD22R,0.072992X0.072992*%
%LNMASK0*%
G90*
G70*
G54D10*
X2215Y725D03*
X2115Y725D03*
X2015Y725D03*
G54D11*
X2315Y925D03*
X2215Y925D03*
X2115Y925D03*
X2015Y925D03*
G54D12*
X1615Y725D03*
X1615Y1125D03*
G54D13*
X115Y125D03*
X3815Y125D03*
X115Y3825D03*
X3815Y3825D03*
G54D14*
X482Y1316D03*
X583Y1316D03*
X682Y1316D03*
X783Y1316D03*
X882Y1316D03*
X982Y1316D03*
X1083Y1316D03*
X1182Y1316D03*
X1282Y1316D03*
X1382Y1316D03*
X1482Y1316D03*
X1582Y1316D03*
X1682Y1316D03*
X1782Y1316D03*
X1881Y1316D03*
X1982Y1316D03*
X2081Y1316D03*
X2181Y1316D03*
X2282Y1316D03*
X2282Y2302D03*
X2181Y2302D03*
X2081Y2302D03*
X1982Y2302D03*
X1881Y2302D03*
X1782Y2302D03*
X1682Y2302D03*
X1582Y2302D03*
X1482Y2302D03*
X1382Y2302D03*
X1282Y2302D03*
X1182Y2302D03*
X1083Y2302D03*
X982Y2302D03*
X882Y2302D03*
X783Y2302D03*
X682Y2302D03*
X583Y2302D03*
X482Y2302D03*
G54D15*
X3515Y1225D03*
X3515Y1025D03*
X3515Y725D03*
X3515Y525D03*
X2115Y3525D03*
X2315Y3525D03*
X3315Y3525D03*
X3515Y3525D03*
X2715Y3525D03*
X2915Y3525D03*
X1515Y3525D03*
X1715Y3525D03*
X915Y3525D03*
X1115Y3525D03*
X415Y3525D03*
X615Y3525D03*
X3515Y2225D03*
X3515Y2025D03*
X3515Y1725D03*
X3515Y1525D03*
X2215Y425D03*
X2015Y425D03*
X715Y425D03*
X515Y425D03*
X1215Y425D03*
X1015Y425D03*
X1715Y425D03*
X1515Y425D03*
X3215Y425D03*
X3015Y425D03*
X2715Y425D03*
X2515Y425D03*
G54D16*
X415Y3225D03*
X515Y3225D03*
X615Y3225D03*
X3315Y3225D03*
X3415Y3225D03*
X3515Y3225D03*
X2815Y3225D03*
X2915Y3225D03*
X3015Y3225D03*
X2215Y3225D03*
X2315Y3225D03*
X2415Y3225D03*
X1615Y3225D03*
X1715Y3225D03*
X1815Y3225D03*
X1015Y3225D03*
X1115Y3225D03*
X1215Y3225D03*
G54D12*
X315Y2725D03*
X715Y2725D03*
X315Y2525D03*
X715Y2525D03*
X3315Y2525D03*
X3715Y2525D03*
X2715Y2525D03*
X3115Y2525D03*
X2115Y2525D03*
X2515Y2525D03*
X1515Y2525D03*
X1915Y2525D03*
X915Y2525D03*
X1315Y2525D03*
X3315Y2725D03*
X3715Y2725D03*
X2715Y2725D03*
X3115Y2725D03*
X2115Y2725D03*
X2515Y2725D03*
X1515Y2725D03*
X1915Y2725D03*
X915Y2725D03*
X1315Y2725D03*
G54D17*
X515Y2927D03*
X515Y3025D03*
X3415Y2927D03*
X3415Y3025D03*
X2915Y2927D03*
X2915Y3025D03*
X2315Y2927D03*
X2315Y3025D03*
X1715Y2927D03*
X1715Y3025D03*
X1115Y2927D03*
X1115Y3025D03*
G54D18*
X2580Y2437D03*
X2316Y2701D03*
G54D19*
X3515Y1225D03*
X3515Y725D03*
G54D20*
X2115Y3525D03*
X3315Y3525D03*
X2715Y3525D03*
X1515Y3525D03*
X915Y3525D03*
X415Y3525D03*
G54D19*
X3515Y2225D03*
X3515Y1725D03*
G54D20*
X2215Y425D03*
X715Y425D03*
X1215Y425D03*
X1715Y425D03*
X3215Y425D03*
X2715Y425D03*
G54D21*
X415Y3225D03*
X3315Y3225D03*
X2815Y3225D03*
X2215Y3225D03*
X1615Y3225D03*
X1015Y3225D03*
G54D22*
X515Y2927D03*
X3415Y2927D03*
X2915Y2927D03*
X2315Y2927D03*
X1715Y2927D03*
X1115Y2927D03*
G04 End of Mask0*
M02*