; NON-PLATED HOLES START AT T1
; THROUGH (PLATED) HOLES START AT T100
M48
INCH
T1C0.125984
T2C0.060000
T100C0.038000
T101C0.035000
T102C0.040000
T103C0.042000
T104C0.015748
T105C0.031497
T106C0.038779
%
T1
X038153Y001253
X001153Y038253
X038153Y038253
X001153Y001253
T2
X020153Y009253
X022153Y009253
X023152Y009253
X021153Y009253
T100
X022153Y007253
X021153Y007253
X020153Y007253
T101
X031153Y025253
X037153Y027253
X003153Y027253
X015153Y025253
X033153Y027253
X021153Y025253
X037153Y025253
X003153Y025253
X027153Y025253
X016153Y007253
X027153Y027253
X031153Y027253
X021153Y027253
X009153Y025253
X009153Y027253
X007153Y025253
X007153Y027253
X025153Y025253
X025153Y027253
X013153Y027253
X019153Y025253
X015153Y027253
X016153Y011253
X019153Y027253
X033153Y025253
X013153Y025253
T102
X021153Y035253
X025153Y004253
X035153Y012253
X035153Y022253
X015153Y035253
X010153Y004253
X035153Y020253
X004153Y035253
X011153Y035253
X035153Y017253
X006153Y035253
X035153Y035253
X015153Y004253
X033153Y035253
X035153Y005253
X020153Y004253
X022153Y004253
X030153Y004253
X017153Y035253
X035153Y015253
X005153Y004253
X023153Y035253
X032153Y004253
X029153Y035253
X027153Y004253
X035153Y010253
X009153Y035253
X007153Y004253
X012153Y004253
X017153Y004253
X035153Y007253
X027153Y035253
T103
X011153Y032253
X029153Y032253
X005153Y032253
X035153Y032253
X016153Y032253
X030153Y032253
X022153Y032253
X010153Y032253
X012153Y032253
X033153Y032253
X028153Y032253
X018153Y032253
X024153Y032253
X004153Y032253
X006153Y032253
X017153Y032253
X034153Y032253
X023153Y032253
T104
X023160Y027010
X025800Y024370
T105
X029153Y029268
X029153Y030253
X034153Y030253
X023153Y029268
X023153Y030253
X005153Y030253
X017153Y029268
X005153Y029268
X011153Y030253
X034153Y029268
X017153Y030253
X011153Y029268
T106
X016817Y023019
X020811Y013162
X004824Y023019
X021814Y013162
X014820Y013162
X014820Y023019
X008818Y023019
X013816Y023019
X015823Y013162
X005828Y023019
X011819Y023019
X018814Y023019
X012823Y023019
X012823Y013162
X010825Y013162
X005828Y013162
X009822Y013162
X010825Y023019
X019817Y013162
X016817Y013162
X022818Y023019
X015823Y023019
X022818Y013162
X009822Y023019
X017820Y023019
X011819Y013162
X021814Y023019
X006821Y023019
X019817Y023019
X008818Y013162
X007825Y013162
X020811Y023019
X013816Y013162
X007825Y023019
X006821Y013162
X018814Y013162
X017820Y013162
X004824Y013162
T00
M30
